<svg xmlns="http://www.w3.org/2000/svg" viewBox="0 0 77.63 57.87"><defs><style>.cls-1{fill:#743e95;}</style></defs><g id="Layer_2" data-name="Layer 2"><g id="Layer_2-2" data-name="Layer 2"><path class="cls-1" d="M1.66,37.44c-2.31-.29-2.16-2.77.17-2.82l17.37-.94c2.49,0,2.84-.92.48-2.15L5.33,21.92c-2-1.25-.82-3.44,1.32-2.5l15.78,6.27c2.44,1,2.92.18,1.52-1.94L15.17,9.36c-1.28-2,.7-3.46,2.25-1.72L28.88,19.72c2,1.85,2.64,1.42,2.39-1.17L29.37,2.08C29-.23,31.45-.77,32.13,1.47l5.3,15.66c.77,2.39,1.86,2.5,2.72,0L45.31,1.43C46-.81,48.4-.28,48.07,2L46.31,18.54c-.41,2.57.53,3,2.39,1.17L60.06,7.53c1.54-1.75,3.51-.26,2.25,1.7L53.65,23.72c-1.4,2.11-1,2.84,1.52,1.94l15.71-6.41c2.14-.95,3.31,1.24,1.33,2.49L57.92,31.5c-2.26,1.27-2,2.23.49,2.14l17.39.79c2.33,0,2.48,2.51.16,2.82L45,42.44c-1.89-4.44-5.27-5.21-7.13-8C36,32.28,35.32,25.73,40,29.34c1.41.76,2.06.67,2.44.31a4.9,4.9,0,0,0,3.11.26c-.11-.2-.37-.26-.6-.32a4.07,4.07,0,0,1-1.9-1.11c.49-1.82-1.36-3.25-3.1-3.85l1-3.19c.1-.28-.19-.4-.33-.14l-1.12,2c-.16.28-.22.24-.25-.06L39,21c0-.29-.34-.29-.36,0l-.19,2.2c0,.3-.11.35-.28,0L37,21.36c-.15-.26-.44-.12-.33.16l1,2.87c-5.22.94-8.34,11.11-5.21,18l-30.85-5ZM29,51.31a2.7,2.7,0,0,0,1.83-2.56,2.65,2.65,0,0,0-1.23-2.31,6,6,0,0,0-3.36-.72A19,19,0,0,0,23,46V57.65a16.93,16.93,0,0,0,2.65.17c2.3,0,3.65-.41,4.47-1.14a3.3,3.3,0,0,0,1.11-2.47A2.87,2.87,0,0,0,29,51.36v0Zm-3.29-.75V47.78a4,4,0,0,1,.87-.08c.91,0,1.57.42,1.57,1.38s-.66,1.48-1.8,1.48Zm0,2h.7c1,0,2,.41,2,1.62s-.91,1.65-1.94,1.65a3.31,3.31,0,0,1-.76,0V52.52Zm14,2.93h-4V52.67h3.62V50.45H35.67V48.06h3.82V45.79H33V57.71h6.77V55.45Zm2-6.42H40.62v2h1.06V54.6c0,1,0,3.27,2.72,3.27a5.89,5.89,0,0,0,1.66-.2v-2.1a2.57,2.57,0,0,1-.71.08c-.65,0-1-.37-1-1.39V51h1.8V49h-1.8V46.69l-2.69.75V49Zm12.48-2.87a6.12,6.12,0,0,0-2.59-.52c-2.76,0-4.31,1.59-4.31,3.61,0,1.42,1,2.59,2.86,3.45,1.23.56,1.77,1,1.77,1.68s-.55,1.21-1.7,1.21A6.21,6.21,0,0,1,47.6,55l-.46,2.28a6.88,6.88,0,0,0,3,.62c2.88,0,4.53-1.54,4.53-3.72,0-1.48-.79-2.65-2.68-3.5C50.49,50,50,49.66,50,49s.51-1.09,1.56-1.09a4.58,4.58,0,0,1,2.1.49l.51-2.24Z"/></g></g></svg>